<svg xmlns="http://www.w3.org/2000/svg" version="1.1" xmlns:xlink="http://www.w3.org/1999/xlink" xmlns:svgjs="http://svgjs.dev/svgjs" width="38" height="39"><svg width="38" height="39" viewBox="0 0 38 39" fill="none" xmlns="http://www.w3.org/2000/svg">
<g clip-path="url(#clip0_312_610)">
<path d="M5.79801 5.02148C5.79699 5.02148 5.79584 5.02148 5.79482 5.02148C5.43632 5.02148 5.09913 5.16123 4.84452 5.41521C4.5871 5.67199 4.44531 6.01389 4.44531 6.37788V26.7168C4.44531 27.4626 5.05447 28.0709 5.80337 28.0728C8.96055 28.0803 14.2501 28.7383 17.8991 32.557V11.2718C17.8991 11.0189 17.8346 10.7814 17.7127 10.5849C14.7177 5.76171 8.96234 5.02889 5.79801 5.02148Z" fill="#0B7077"></path>
<path d="M33.4591 26.7167V6.37764C33.4591 6.01365 33.3173 5.67174 33.0598 5.41496C32.8052 5.16099 32.4678 5.02124 32.1097 5.02124C32.1085 5.02124 32.1074 5.02124 32.1064 5.02124C28.9422 5.02877 23.1868 5.76159 20.1917 10.5848C20.0698 10.7813 20.0054 11.0188 20.0054 11.2717V32.5568C23.6544 28.7381 28.944 28.0801 32.1011 28.0726C32.8499 28.0706 33.4591 27.4624 33.4591 26.7167Z" fill="#0B7077"></path>
<path d="M36.5487 9.71216H35.5652V26.717C35.5652 28.6213 34.0137 30.1741 32.1064 30.1788C29.4285 30.1852 25.0129 30.7089 21.8857 33.6686C27.2942 32.3444 32.9957 33.2052 36.2451 33.9457C36.6508 34.0381 37.07 33.9426 37.3951 33.6835C37.719 33.4251 37.9048 33.0388 37.9048 32.6241V11.0683C37.9049 10.3205 37.2964 9.71216 36.5487 9.71216Z" fill="#0B7077"></path>
<path d="M2.33962 26.7169V9.71204H1.35614C0.608515 9.71204 0 10.3204 0 11.0682V32.6236C0 33.0384 0.185822 33.4246 0.509733 33.683C0.834538 33.942 1.2534 34.0378 1.65976 33.9452C4.90908 33.2046 10.6107 32.3439 16.0189 33.6681C12.8919 30.7085 8.47632 30.185 5.79837 30.1786C3.89128 30.174 2.33962 28.6212 2.33962 26.7169Z" fill="#0B7077"></path>
</g>
<defs>
<clipPath id="SvgjsClipPath1005">
<rect width="37.9044" height="37.9044" fill="white" transform="translate(0 0.547852)"></rect>
</clipPath>
</defs>
</svg><style>@media (prefers-color-scheme: light) { :root { filter: none; } }
@media (prefers-color-scheme: dark) { :root { filter: none; } }
</style></svg>