<svg aria-hidden="true" style="position: absolute; width: 0; height: 0; overflow: hidden;" version="1.1"
     xmlns="http://www.w3.org/2000/svg" xmlns:xlink="http://www.w3.org/1999/xlink">
    <defs>
        <symbol id="icon-book" viewBox="0 0 31 32">
            <path d="M4.757 4.12c-0.001 0-0.002 0-0.003 0-0.294 0-0.571 0.115-0.78 0.323-0.211 0.211-0.328 0.491-0.328 0.79v16.688c0 0.612 0.5 1.111 1.114 1.113 2.591 0.006 6.931 0.546 9.925 3.679v-17.465c0-0.207-0.053-0.402-0.153-0.564-2.457-3.957-7.18-4.559-9.776-4.565z"></path>
            <path d="M27.454 21.921v-16.688c0-0.299-0.116-0.579-0.328-0.79-0.209-0.208-0.486-0.323-0.78-0.323-0.001 0-0.002 0-0.003 0-2.596 0.006-7.319 0.607-9.776 4.565-0.1 0.161-0.153 0.356-0.153 0.564v17.465c2.994-3.133 7.334-3.673 9.925-3.679 0.614-0.002 1.114-0.501 1.114-1.113z"></path>
            <path d="M29.989 7.969h-0.807v13.953c0 1.563-1.273 2.837-2.838 2.84-2.197 0.005-5.82 0.435-8.386 2.863 4.438-1.087 9.116-0.38 11.782 0.227 0.333 0.076 0.677-0.003 0.944-0.215 0.266-0.212 0.418-0.529 0.418-0.869v-17.687c0-0.614-0.499-1.113-1.113-1.113z"></path>
            <path d="M1.92 21.922v-13.953h-0.807c-0.613 0-1.113 0.499-1.113 1.113v17.686c0 0.34 0.152 0.657 0.418 0.869s0.61 0.291 0.944 0.215c2.666-0.608 7.344-1.314 11.782-0.227-2.566-2.428-6.189-2.858-8.386-2.863-1.565-0.004-2.838-1.278-2.838-2.84z"></path>
        </symbol>
        <symbol id="icon-menu" viewBox="0 0 32 32">
            <path d="M29.333 24.007c0 0.733-0.595 1.327-1.327 1.327h-10.68c-0.733 0-1.327-0.594-1.327-1.327s0.594-1.327 1.327-1.327h10.68c0.733 0 1.327 0.593 1.327 1.327zM29.333 16c0 0.733-0.595 1.327-1.327 1.327h-24.013c-0.733 0-1.327-0.594-1.327-1.327s0.594-1.327 1.327-1.327h24.013c0.733 0 1.327 0.595 1.327 1.327zM28.007 9.32c0.733 0 1.327-0.594 1.327-1.327s-0.594-1.327-1.327-1.327h-16.013c-0.733 0-1.327 0.594-1.327 1.327s0.594 1.327 1.327 1.327h16.013z"></path>
        </symbol>
        <symbol id="icon-close" viewBox="0 0 24 24">
            <path stroke-linejoin="miter" stroke-linecap="round" stroke-miterlimit="4" stroke-width="2" d="M9 6l6 6 6-6M9 18l6-6 6 6"></path>
        </symbol>
    </defs>
</svg>
