<!-- Generated by IcoMoon.io -->
<svg version="1.1" xmlns="http://www.w3.org/2000/svg" width="998" height="1024" viewBox="0 0 998 1024">
<g id="icomoon-ignore">
</g>
<path d="M152.235 131.846c-0.027 0-0.057 0-0.084 0-9.413 0-18.266 3.669-24.951 10.338-6.759 6.742-10.482 15.719-10.482 25.276v534.027c0 19.582 15.994 35.554 35.658 35.604 82.896 0.197 221.781 17.474 317.59 117.739v-558.873c0-6.64-1.694-12.876-4.894-18.036-78.638-126.64-229.753-145.881-312.837-146.075z"></path>
<path d="M878.516 701.485v-534.031c0-9.557-3.723-18.534-10.484-25.277-6.685-6.668-15.544-10.338-24.946-10.338-0.032 0-0.060 0-0.087 0-83.081 0.198-234.197 19.439-312.837 146.079-3.201 5.159-4.892 11.395-4.892 18.036v558.87c95.81-100.265 234.696-117.542 317.59-117.739 19.661-0.053 35.656-16.022 35.656-35.601z"></path>
<path d="M959.638 255.006h-25.823v446.486c0 50-40.737 90.771-90.816 90.894-70.312 0.168-186.25 13.919-268.359 91.63 142.008-34.769 291.709-12.167 377.026 7.276 10.652 2.426 21.659-0.081 30.195-6.884 8.504-6.785 13.383-16.928 13.383-27.816v-565.978c0.003-19.635-15.974-35.607-35.606-35.607z"></path>
<path d="M61.43 701.49v-446.487h-25.823c-19.63 0-35.607 15.973-35.607 35.608v565.967c0 10.891 4.879 21.031 13.384 27.816 8.528 6.8 19.526 9.316 30.196 6.884 85.315-19.445 235.020-42.044 377.019-7.276-82.104-77.708-198.041-91.454-268.354-91.622-50.073-0.121-90.814-40.892-90.814-90.892z"></path>
</svg>
